<?xml version="1.0" encoding="UTF-8" standalone="no"?>
<!-- Created with Inkscape (http://www.inkscape.org/) -->

<svg
   width="83.263908mm"
   height="29.687004mm"
   viewBox="0 0 83.263908 29.687004"
   version="1.1"
   id="svg1"
   xml:space="preserve"
   sodipodi:docname="logohover.svg"
   inkscape:version="1.3.2 (091e20e, 2023-11-25, custom)"
   xmlns:inkscape="http://www.inkscape.org/namespaces/inkscape"
   xmlns:sodipodi="http://sodipodi.sourceforge.net/DTD/sodipodi-0.dtd"
   xmlns="http://www.w3.org/2000/svg"
   xmlns:svg="http://www.w3.org/2000/svg"><sodipodi:namedview
     id="namedview1"
     pagecolor="#ffffff"
     bordercolor="#000000"
     borderopacity="0.25"
     inkscape:showpageshadow="2"
     inkscape:pageopacity="0.0"
     inkscape:pagecheckerboard="0"
     inkscape:deskcolor="#d1d1d1"
     inkscape:document-units="mm"
     inkscape:zoom="2.316591"
     inkscape:cx="108.99637"
     inkscape:cy="94.319627"
     inkscape:window-width="1920"
     inkscape:window-height="1017"
     inkscape:window-x="-8"
     inkscape:window-y="-8"
     inkscape:window-maximized="1"
     inkscape:current-layer="layer2" /><defs
     id="defs1" /><g
     id="layer2"
     transform="translate(-2.7787893,-114.65924)"><path
       id="path7"
       style="display:inline;fill:#fde047;fill-opacity:1;stroke:#ffcc00;stroke-width:0.487639;stroke-opacity:0"
       d="m 30.236915,114.90306 c -1.229201,0 -3.867852,1.32702 -6.231145,2.89441 -0.921327,0.61104 -1.514806,1.04409 -3.49281,2.54713 l -1.192176,0.96945 -0.199987,-0.0486 c -0.110017,-0.0265 -0.909584,-0.18032 -2.120284,-0.54416 -3.112625,-0.93538 -4.816119,-1.3518 -6.897254,-1.68568 -1.3735752,-0.22033 -2.2720517,-0.30706 -3.2287432,-0.31006 -0.9185328,-0.003 -1.4199639,0.12321 -1.7523479,0.29093 -0.2831988,0.1429 -0.3094416,0.34139 -0.1136881,0.85835 0.4899629,1.29397 2.2227962,4.38877 4.0607341,6.69262 0.4256805,0.53357 2.7620731,3.27476 3.3434651,3.92276 0.08605,0.0959 0.109663,-0.11137 -0.320393,1.25883 -0.493892,1.5736 -0.618996,1.98636 -0.834576,3.1719 -0.408981,2.24912 -0.474489,3.92274 -0.477489,6.20841 -0.0024,1.7649 0.181276,2.13879 0.352433,2.73317 0.08117,0.28185 0.06469,0.27744 0.584977,0.14986 0.26387,-0.0647 1.558085,-0.60012 1.83348,-0.75861 1.047851,-0.60305 3.016943,-1.86694 6.946863,-4.77077 1.197247,-0.88466 2.060128,-1.58985 2.089278,-1.60765 0.02917,-0.0179 0.857183,0.34853 1.971456,0.60203 1.114271,0.25351 2.441771,0.58209 2.818432,0.65939 3.441562,0.70573 7.449267,0.53835 8.004163,0.0615 0.193423,-0.16623 0.04772,-0.83379 -0.322461,-1.47743 -0.773735,-1.34532 -3.574176,-4.56865 -4.547009,-5.23379 -0.497517,-0.34016 -1.171187,-0.69537 -4.610653,-0.69592 -2.286442,-3e-4 -2.984264,0.2389 -3.682898,0.3192 -1.868609,0.21481 -2.699265,0.10261 -3.462321,-0.62993 -0.379249,-0.36412 -0.579345,-0.75865 -0.660425,-1.30225 -0.101245,-0.67867 0.123739,-1.45428 0.458887,-1.98127 0.076,-0.093 0.155952,-0.17755 0.243396,-0.24185 0.618823,-0.45505 2.139452,-0.86618 4.050399,-1.13946 0.927775,-0.13269 2.074148,0.0214 3.685082,-0.029 0.887501,-0.0278 1.729201,-0.0649 1.870687,-0.0827 0.728164,-0.0426 0.706428,-0.46311 0.916699,-0.75225 0.107602,-0.21889 0.743843,-2.72834 0.960148,-3.78737 0.402903,-1.97266 0.559286,-3.35137 0.526066,-4.62866 -0.03185,-1.22483 -0.256172,-1.63246 -0.652672,-1.63246 z"
       sodipodi:nodetypes="csccccccccccssccsccccccsscccccccccccscc" /><path
       id="path1-7"
       style="display:inline;fill:#374151;fill-opacity:1;stroke-width:1.2256"
       d="m 26.074894,125.54892 c -3.366367,0.0438 -6.898664,0.81039 -7.55096,1.63917 -0.684194,0.86927 -0.741521,2.38285 -0.117822,3.10317 0.75034,0.86657 1.621977,1.11978 3.148645,0.91467 3.162334,-0.52503 6.294485,-0.19743 9.376688,0.23359 2.327233,0.32544 4.510915,1.3564 6.76135,2.04178 0,0 6.238952,1.68653 9.238196,2.85151 7.688476,2.98635 14.998348,6.77522 16.426387,6.74842 l 6.897253,-0.12919 c -0.337286,0.06 1.648009,-3.85066 -3.815271,-4.44624 -0.537936,-0.0912 -4.416007,-1.26408 -8.988598,-3.53828 -4.928053,-2.45102 -9.848355,-4.44931 -14.956193,-6.22753 -2.410194,-0.83908 -5.149929,-1.53641 -7.375261,-2.08618 -1.01883,-0.25171 -4.525298,-1.0856 -6.271968,-1.07384 z" /><text
       xml:space="preserve"
       style="font-style:normal;font-variant:normal;font-weight:bold;font-stretch:normal;font-size:17.7486px;font-family:'Comic Sans MS';-inkscape-font-specification:'Comic Sans MS Bold';letter-spacing:-0.30413px;word-spacing:-1.15645px;display:inline;fill:#60a5fa;fill-opacity:1;stroke:#374151;stroke-width:0.315;stroke-dasharray:none;stroke-opacity:1"
       x="5.4284458"
       y="105.5472"
       id="text1-2"
       transform="scale(0.75419678,1.3259139)"><tspan
         id="tspan1-2"
         style="font-style:normal;font-variant:normal;font-weight:bold;font-stretch:normal;font-size:17.7486px;font-family:'Comic Sans MS';-inkscape-font-specification:'Comic Sans MS Bold';letter-spacing:-0.30413px;word-spacing:-1.15645px;fill:#60a5fa;fill-opacity:1;stroke:#374151;stroke-width:0.315;stroke-dasharray:none;stroke-opacity:1"
         x="5.4284458"
         y="105.5472"
         dx="0 -1.2204255 -0.87984169 -0.099336959 -0.59602177 -0.31220192 -0.89403266 0 0 0 0 0">Poketernuras</tspan></text></g></svg>
