<?xml version="1.0" encoding="UTF-8" standalone="no"?>
<!-- Created with Inkscape (http://www.inkscape.org/) -->

<svg
   width="83.263908mm"
   height="29.687004mm"
   viewBox="0 0 83.263908 29.687004"
   version="1.1"
   id="svg1"
   xml:space="preserve"
   sodipodi:docname="logo.svg"
   inkscape:version="1.3.2 (091e20e, 2023-11-25, custom)"
   xmlns:inkscape="http://www.inkscape.org/namespaces/inkscape"
   xmlns:sodipodi="http://sodipodi.sourceforge.net/DTD/sodipodi-0.dtd"
   xmlns="http://www.w3.org/2000/svg"
   xmlns:svg="http://www.w3.org/2000/svg"><sodipodi:namedview
     id="namedview1"
     pagecolor="#ffffff"
     bordercolor="#000000"
     borderopacity="0.25"
     inkscape:showpageshadow="2"
     inkscape:pageopacity="0.0"
     inkscape:pagecheckerboard="0"
     inkscape:deskcolor="#d1d1d1"
     inkscape:document-units="mm"
     inkscape:zoom="3.2761544"
     inkscape:cx="157.34912"
     inkscape:cy="56.010791"
     inkscape:window-width="1920"
     inkscape:window-height="1017"
     inkscape:window-x="-8"
     inkscape:window-y="-8"
     inkscape:window-maximized="1"
     inkscape:current-layer="layer2" /><defs
     id="defs1" /><g
     id="layer1"
     transform="translate(-2.7787893,-114.65924)"><path
       id="path1"
       style="display:inline;fill:#374151;fill-opacity:1;stroke-width:1.2256"
       d="M 30.170916 114.82305 C 29.967924 114.82615 29.665403 114.90946 29.190097 115.04578 L 29.18958 115.04578 C 27.44579 115.54596 23.933413 117.565 21.301173 119.57987 L 19.15195 121.22473 L 16.005889 120.25631 C 10.837871 118.66583 5.4571486 118.1651 4.8246593 119.21658 C 4.5990605 119.59162 5.7638158 122.11643 7.3309662 124.64933 C 7.6864069 125.22391 8.9185292 126.78975 10.069817 128.1287 L 12.163229 130.56266 L 11.471282 132.68036 C 11.212353 133.4719 10.910361 136.25075 10.744195 137.25683 C 10.513647 139.3226 10.527935 141.56661 10.985007 143.87709 C 11.028746 144.09675 11.264432 144.13842 11.324004 144.06778 C 12.768132 144.42246 18.69627 139.99292 20.412855 138.67896 L 22.474745 137.10025 L 25.544842 137.81597 C 28.842911 138.58468 32.970872 138.9642 34.628525 138.65106 C 35.62625 138.46258 35.642275 138.43135 35.273963 137.42529 C 35.066101 136.85748 34.058242 135.28468 33.034307 133.93042 L 31.184291 131.48405 C 31.214703 131.48898 31.244875 131.49492 31.275241 131.50007 L 37.679501 133.4767 L 37.69242 133.48083 C 37.692628 133.48089 37.692729 133.48128 37.692937 133.48135 C 37.692937 133.48135 37.741201 133.4948 37.743063 133.4953 C 37.785846 133.50687 39.252239 133.90631 41.065858 134.43581 C 42.549523 134.86951 44.254975 135.38773 45.672812 135.87603 C 46.130185 136.03356 46.555896 136.18679 46.930616 136.33234 C 46.930802 136.33241 46.930948 136.33278 46.931133 136.33285 C 47.891981 136.70607 48.84695 137.09133 49.785222 137.48059 C 49.785427 137.48067 49.785534 137.48102 49.785739 137.4811 C 50.723997 137.87036 51.645381 138.26327 52.539576 138.65054 C 52.539921 138.65069 52.540265 138.65091 52.54061 138.65106 C 54.328978 139.42559 56.008025 140.17806 57.491212 140.83645 C 57.491399 140.83654 57.491542 140.83689 57.491729 140.83697 C 58.233227 141.16612 58.925793 141.47132 59.558786 141.74441 C 59.55911 141.74455 59.559496 141.74479 59.55982 141.74493 C 60.192535 142.01788 60.765952 142.25864 61.268759 142.45754 C 61.268943 142.45762 61.269092 142.45799 61.269276 142.45806 C 62.275526 142.85616 63.000511 143.08798 63.357521 143.08128 L 70.254774 142.95209 C 70.254175 142.95219 70.254325 142.95097 70.25374 142.95105 C 70.232958 142.95454 70.221297 142.94276 70.216017 142.91746 C 70.200458 142.84048 70.244353 142.64139 70.28423 142.36659 C 70.284272 142.3663 70.284187 142.36585 70.28423 142.36556 C 70.310872 142.18196 70.33567 141.96484 70.339523 141.72839 C 70.339526 141.72822 70.339521 141.72804 70.339523 141.72787 C 70.34143 141.60987 70.338003 141.48683 70.327121 141.36097 C 70.327092 141.36064 70.32715 141.36027 70.327121 141.35994 C 70.323836 141.32208 70.314272 141.28254 70.309551 141.24418 C 70.298496 141.15461 70.288787 141.06535 70.268727 140.97391 C 70.257319 140.92182 70.236447 140.86921 70.221701 140.81682 C 70.199548 140.73823 70.181425 140.65978 70.150904 140.58117 C 70.117217 140.49431 70.068996 140.40871 70.02378 140.32279 C 70.000565 140.27868 69.985197 140.23364 69.958668 140.18998 C 69.958548 140.18978 69.958272 140.18966 69.958151 140.18946 C 69.946867 140.17091 69.929234 140.15366 69.917327 140.1352 C 69.599319 139.64224 69.062436 139.18596 68.158261 138.87017 C 67.6889 138.70624 67.122233 138.5793 66.438986 138.50481 C 65.968317 138.42499 62.940489 137.51763 59.127805 135.76855 C 59.127603 135.76845 59.12749 135.76812 59.127288 135.76803 C 58.582575 135.51813 58.021445 135.2508 57.449871 134.96653 C 56.83421 134.66032 56.218741 134.36143 55.602955 134.06891 C 55.602606 134.06874 55.602271 134.06856 55.601922 134.06839 C 54.95936 133.76316 54.316391 133.46625 53.67284 133.17491 C 52.475235 132.63274 51.275311 132.11296 50.06996 131.61376 C 50.059778 131.60954 50.049653 131.60506 50.03947 131.60084 C 50.027814 131.59602 50.015988 131.59171 50.00433 131.58689 C 48.785763 131.08303 47.561932 130.59962 46.329619 130.13271 C 46.317322 130.12805 46.305228 130.1229 46.292929 130.11824 C 45.036612 129.64265 43.771459 129.18452 42.494711 128.74003 C 42.494502 128.73996 42.494404 128.73959 42.494195 128.73952 C 41.463246 128.38061 40.372185 128.05338 39.286638 127.74681 C 39.103426 127.69507 38.920402 127.6384 38.737835 127.58817 C 38.737671 127.58812 38.737482 127.58821 38.737318 127.58817 C 37.491753 127.24541 36.270958 126.93864 35.171127 126.66678 C 35.155028 126.6628 35.13498 126.6573 35.118934 126.65334 C 35.105211 126.64995 35.093366 126.64793 35.07966 126.64455 C 34.703265 126.55177 33.988978 126.38763 33.185202 126.21512 C 33.128076 126.20318 33.073505 126.19106 33.017254 126.17947 C 32.119446 125.98958 31.142758 125.80154 30.240679 125.68699 C 30.127479 125.67162 29.749642 125.6079 29.740968 125.60896 C 29.51777 125.63568 29.552644 124.7439 29.819516 123.61993 C 30.496274 120.76972 30.940979 116.70269 30.696465 115.60027 C 30.571149 115.03534 30.509236 114.81789 30.170916 114.82305 z M 29.713579 115.56461 C 30.408995 115.63785 30.326869 118.63583 29.533745 122.14819 C 29.144793 123.87068 28.757389 125.33344 28.672299 125.39864 C 28.587236 125.4636 27.418074 125.53048 26.074525 125.54798 C 22.708153 125.59178 19.175862 126.3589 18.523565 127.18767 C 17.924894 127.94828 17.806195 129.20229 18.203688 129.98647 C 18.203785 129.98666 18.204107 129.98679 18.204204 129.98699 C 18.260919 130.09876 18.327933 130.2015 18.405742 130.29136 C 18.499535 130.39968 18.594948 130.49801 18.69358 130.58747 C 18.693754 130.58762 18.693923 130.58783 18.694097 130.58798 C 18.792556 130.67724 18.894147 130.75722 18.999505 130.82828 C 19.045341 130.85922 19.095225 130.88183 19.142648 130.90941 C 19.204454 130.94532 19.264366 130.98505 19.3292 131.01535 C 19.329336 131.01541 19.329581 131.01528 19.329717 131.01535 C 19.444145 131.0688 19.563378 131.11378 19.688868 131.15022 C 19.689026 131.15027 19.689227 131.15018 19.689385 131.15022 C 19.814892 131.18665 19.946579 131.21495 20.085226 131.23497 C 20.362839 131.27508 20.668973 131.28284 21.011785 131.26081 C 21.183191 131.2498 21.364071 131.23167 21.554904 131.20603 C 21.559908 131.2052 21.564886 131.20479 21.56989 131.20397 C 23.626019 130.9311 28.832771 131.01493 29.628313 131.33471 C 30.430319 131.65703 33.737008 135.45991 34.359807 136.77624 C 34.589313 137.26128 34.690909 137.78789 34.585633 137.94567 C 34.20697 138.5135 29.837688 138.22285 26.182012 137.38653 L 22.453041 136.53284 L 19.97929 138.37666 C 18.990271 139.11372 14.047677 142.80691 13.249985 143.04665 C 12.510326 143.34341 11.95887 143.65312 11.377748 143.66832 C 11.025175 142.88748 11.022127 140.64888 11.164841 138.60248 C 11.326494 136.28419 11.801185 133.78059 12.073829 132.90671 L 12.852593 130.4128 L 10.394345 127.55251 C 8.0330924 124.805 5.3398033 120.56685 5.4101532 119.70958 C 5.4936501 118.69205 10.684011 119.22364 15.793499 120.77256 L 19.388628 121.86242 L 22.232382 119.69201 C 25.009037 117.57356 28.821353 115.47071 29.713579 115.56461 z " /></g><g
     id="layer2"
     transform="matrix(0.99473318,0,0,1.3164414,-2.5448858,-159.35557)"><text
       xml:space="preserve"
       style="font-style:normal;font-variant:normal;font-weight:bold;font-stretch:normal;font-size:12.507px;font-family:'Comic Sans MS';-inkscape-font-specification:'Comic Sans MS Bold';letter-spacing:-0.214312px;word-spacing:-0.814917px;display:inline;fill:#60a5fa;fill-opacity:1;stroke:#266ec7;stroke-width:0.221963;stroke-dasharray:none;stroke-opacity:1"
       x="4.3511586"
       y="125.99096"
       id="text1"
       transform="scale(0.89970898,1.1114705)"><tspan
         id="tspan1"
         style="font-style:normal;font-variant:normal;font-weight:bold;font-stretch:normal;font-size:12.507px;font-family:'Comic Sans MS';-inkscape-font-specification:'Comic Sans MS Bold';letter-spacing:-0.214312px;word-spacing:-0.814917px;fill:#60a5fa;fill-opacity:1;stroke:#266ec7;stroke-width:0.221963;stroke-dasharray:none;stroke-opacity:1"
         x="4.3511586"
         y="125.99096"
         dx="0 -0.86000001 -0.62 -0.07 -0.41999999 -0.22 -0.63 0 0 0 0 0">Poketernuras</tspan></text></g></svg>
